<svg width="219" height="165" viewBox="0 0 219 165" fill="none" xmlns="http://www.w3.org/2000/svg">
<path d="M49.7754 65.6626C47.3408 65.6626 45.0044 66.035 42.679 66.3747C43.4323 63.833 44.2075 61.2476 45.4521 58.9251C46.6966 55.5509 48.64 52.6258 50.5724 49.6789C52.1882 46.4909 55.0376 44.3327 57.1338 41.6049C59.3282 38.9537 62.3196 37.1899 64.6887 34.9879C67.0141 32.6873 70.0601 31.537 72.4838 29.9156C75.0167 28.4586 77.222 26.8481 79.5802 26.0813L85.4647 23.6492L90.6396 21.491L85.3446 0.259766L78.8269 1.83732C76.7416 2.36317 74.1978 2.97666 71.3047 3.71066C68.3461 4.25843 65.1909 5.7593 61.6755 7.1287C58.2037 8.68435 54.1861 9.73605 50.4523 12.2338C46.6966 14.6221 42.3624 16.6159 38.5413 19.8149C34.8402 23.1124 30.375 25.9717 27.0779 30.1676C23.4751 34.0896 19.916 38.2087 17.1539 42.8976C13.9551 47.3673 11.7825 52.2753 9.48979 57.1284C7.41547 61.9816 5.74509 66.9443 4.3804 71.7646C1.79295 81.4272 0.635696 90.6077 0.188079 98.4626C-0.183117 106.328 0.0352336 112.869 0.493769 117.601C0.657531 119.836 0.963222 122.005 1.18157 123.506L1.45451 125.347L1.73836 125.281C3.68016 134.383 8.15026 142.747 14.6315 149.406C21.1128 156.066 29.3405 160.747 38.3627 162.91C47.3849 165.073 56.833 164.629 65.614 161.629C74.395 158.628 82.1502 153.195 87.9824 145.957C93.8145 138.718 97.4854 129.971 98.5703 120.727C99.6552 111.483 98.1097 102.119 94.1128 93.7192C90.1159 85.3194 83.8308 78.2267 75.9845 73.2617C68.1383 68.2966 59.0515 65.6619 49.7754 65.6626ZM169.868 65.6626C167.433 65.6626 165.097 66.035 162.772 66.3747C163.525 63.833 164.3 61.2476 165.545 58.9251C166.789 55.5509 168.732 52.6258 170.665 49.6789C172.281 46.4909 175.13 44.3327 177.226 41.6049C179.421 38.9537 182.412 37.1899 184.781 34.9879C187.107 32.6873 190.153 31.537 192.576 29.9156C195.109 28.4586 197.315 26.8481 199.673 26.0813L205.557 23.6492L210.732 21.491L205.437 0.259766L198.919 1.83732C196.834 2.36317 194.29 2.97666 191.397 3.71066C188.439 4.25843 185.283 5.7593 181.768 7.1287C178.307 8.6953 174.279 9.73605 170.545 12.2448C166.789 14.633 162.455 16.6269 158.634 19.8258C154.933 23.1234 150.468 25.9827 147.17 30.1676C143.568 34.0896 140.009 38.2087 137.246 42.8976C134.048 47.3673 131.875 52.2753 129.582 57.1284C127.508 61.9816 125.838 66.9443 124.473 71.7646C121.885 81.4272 120.728 90.6077 120.281 98.4626C119.909 106.328 120.128 112.869 120.586 117.601C120.75 119.836 121.056 122.005 121.274 123.506L121.547 125.347L121.831 125.281C123.773 134.383 128.243 142.747 134.724 149.406C141.205 156.066 149.433 160.747 158.455 162.91C167.477 165.073 176.926 164.629 185.707 161.629C194.488 158.628 202.243 153.195 208.075 145.957C213.907 138.718 217.578 129.971 218.663 120.727C219.748 111.483 218.202 102.119 214.205 93.7192C210.208 85.3194 203.923 78.2267 196.077 73.2617C188.231 68.2966 179.144 65.6619 169.868 65.6626Z" fill="#B6D475"/>
</svg>
