<?xml version="1.0" encoding="UTF-8"?>
<svg id="Layer_2" data-name="Layer 2" xmlns="http://www.w3.org/2000/svg" width="1248.54" height="137.84" xmlns:xlink="http://www.w3.org/1999/xlink" viewBox="0 0 1248.54 137.84">
  <defs>
    <style>
      .cls-1 {
        mask: url(#mask);
      }

      .cls-2, .cls-3, .cls-4 {
        stroke-width: 0px;
      }

      .cls-3 {
        fill: #d7f19f;
      }

      .cls-4 {
        fill: #fff;
      }
    </style>
    <mask id="mask" x="-.03" y="-.57" width="1249" height="139" maskUnits="userSpaceOnUse">
      <g id="path-1-outside-1_1166_5275" data-name="path-1-outside-1 1166 5275">
        <rect class="cls-4" x="-.03" y="-.57" width="1249" height="139"/>
        <path class="cls-2" d="M55.03,130.43L7.3,7.03h29.97l34.23,94.91L105.53,7.03h29.97l-47.54,123.4h-32.93ZM152.44,130.43V7.03h26.27v123.4h-26.27ZM202.84,68.83c0-39.03,29.6-63.83,65.67-63.83,25.53,0,41.62,12.4,51.06,27.01l-21.83,11.84c-5.74-8.69-16.28-15.54-29.23-15.54-22.38,0-38.66,17.2-38.66,40.51s16.28,40.52,38.66,40.52c11.29,0,21.27-4.62,26.64-9.44v-14.99h-32.93v-22.57h58.83v47.18c-12.58,14.06-30.15,23.31-52.54,23.31-36.07,0-65.67-25.16-65.67-64.01ZM400.34,130.43V7.03h87.32v22.57h-61.05v26.83h59.75v22.57h-59.75v51.43h-26.27ZM511.58,130.43V7.03h87.32v22.57h-61.05v26.83h59.75v22.57h-59.75v28.68h61.05v22.75h-87.32ZM616.48,113.04l14.43-19.98c8.7,9.07,22.2,16.65,39.22,16.65,14.43,0,21.46-6.85,21.46-13.88,0-9.25-10.73-12.39-24.97-15.72-20.17-4.62-46.07-10.18-46.07-37.74,0-20.53,17.76-37.19,46.8-37.19,19.61,0,35.89,5.92,48.1,17.21l-14.61,19.24c-9.99-9.25-23.31-13.51-35.33-13.51s-18.13,5.18-18.13,12.58c0,8.32,10.36,10.91,24.6,14.24,20.35,4.62,46.25,10.73,46.25,38.11,0,22.57-16.1,39.59-49.4,39.59-23.68,0-40.7-7.96-52.35-19.61ZM768.69,130.43V30.16h-36.08V7.03h98.42v23.13h-35.89v100.27h-26.45ZM853.43,130.43V7.03h26.27v123.4h-26.27ZM944.34,130.43l-47.73-123.4h29.97l34.22,94.91,34.04-94.91h29.97l-47.54,123.4h-32.93ZM1119.48,130.43l-7.77-21.28h-55.13l-7.77,21.28h-28.86l47.73-123.4h32.93l47.54,123.4h-28.67ZM1084.14,29.79l-20.53,56.61h40.88l-20.35-56.61ZM1165.1,130.43V7.03h26.27v100.27h52.17v23.12h-78.44Z"/>
      </g>
    </mask>
  </defs>
  <g id="Layer_1-2" data-name="Layer 1">
    <g class="cls-1">
      <path class="cls-3" d="M55.03,130.43l-4.66,1.8,1.24,3.2h3.43v-5ZM7.3,7.03V2.03H0l2.63,6.8,4.66-1.8ZM37.27,7.03l4.7-1.7-1.19-3.3h-3.51v5ZM71.49,101.94l-4.7,1.7,4.72,13.08,4.69-13.09-4.71-1.69ZM105.53,7.03V2.03h-3.52l-1.19,3.31,4.71,1.69ZM135.5,7.03l4.67,1.8,2.62-6.8h-7.29v5ZM87.96,130.43v5h3.43l1.23-3.2-4.67-1.8ZM59.69,128.63L11.96,5.23l-9.33,3.61,47.73,123.4,9.33-3.61ZM7.3,12.03h29.97V2.03H7.3v10ZM32.56,8.73l34.23,94.91,9.41-3.39L41.97,5.34l-9.41,3.39ZM76.2,103.63L110.24,8.72l-9.41-3.38-34.04,94.9,9.41,3.38ZM105.53,12.03h29.97V2.03h-29.97v10ZM130.83,5.24l-47.55,123.39,9.33,3.6L140.17,8.83l-9.33-3.6ZM87.96,125.43h-32.93v10h32.93v-10ZM152.44,130.43h-5v5h5v-5ZM152.44,7.03V2.03h-5v5h5ZM178.71,7.03h5V2.03h-5v5ZM178.71,130.43v5h5v-5h-5ZM157.44,130.43V7.03h-10v123.4h10ZM152.44,12.03h26.27V2.03h-26.27v10ZM173.71,7.03v123.4h10V7.03h-10ZM178.71,125.43h-26.27v10h26.27v-10ZM319.58,32.01l2.38,4.4,4.74-2.57-2.93-4.53-4.2,2.71ZM297.75,43.85l-4.17,2.75,2.53,3.83,4.03-2.19-2.38-4.4ZM295.16,99.91l3.34,3.72,1.66-1.49v-2.23h-5ZM295.16,84.92h5v-5h-5v5ZM262.23,84.92h-5v5h5v-5ZM262.23,62.35v-5h-5v5h5ZM321.06,62.35h5v-5h-5v5ZM321.06,109.53l3.73,3.33,1.27-1.42v-1.91h-5ZM207.84,68.83c0-35.94,27.01-58.83,60.67-58.83V0c-38.49,0-70.67,26.69-70.67,68.83h10ZM268.52,10c23.6,0,38.21,11.32,46.86,24.72l8.4-5.42c-10.22-15.83-27.8-29.3-55.26-29.3v10ZM317.19,27.61l-21.83,11.84,4.77,8.79,21.83-11.84-4.77-8.79ZM301.92,41.1c-6.58-9.98-18.63-17.79-33.4-17.79v10c11.13,0,20.17,5.88,25.06,13.29l8.35-5.51ZM268.52,23.31c-25.38,0-43.66,19.68-43.66,45.51h10c0-20.78,14.27-35.51,33.66-35.51v-10ZM224.85,68.83c0,25.84,18.29,45.52,43.66,45.52v-10c-19.39,0-33.66-14.73-33.66-35.52h-10ZM268.52,114.34c12.52,0,23.7-5.09,29.98-10.71l-6.68-7.45c-4.45,3.99-13.26,8.16-23.3,8.16v10ZM300.16,99.91v-14.99h-10v14.99h10ZM295.16,79.92h-32.93v10h32.93v-10ZM267.23,84.92v-22.57h-10v22.57h10ZM262.23,67.35h58.83v-10h-58.83v10ZM316.06,62.35v47.18h10v-47.18h-10ZM317.33,106.19c-11.7,13.08-27.95,21.64-48.81,21.64v10c23.91,0,42.81-9.93,56.27-24.98l-7.45-6.67ZM268.52,127.84c-33.63,0-60.67-23.23-60.67-59.01h-10c0,41.92,32.16,69.01,70.67,69.01v-10ZM400.34,130.43h-5v5h5v-5ZM400.34,7.03V2.03h-5v5h5ZM487.66,7.03h5V2.03h-5v5ZM487.66,29.61v5h5v-5h-5ZM426.61,29.61v-5h-5v5h5ZM426.61,56.43h-5v5h5v-5ZM486.37,56.43h5v-5h-5v5ZM486.37,79v5h5v-5h-5ZM426.61,79v-5h-5v5h5ZM426.61,130.43v5h5v-5h-5ZM405.34,130.43V7.03h-10v123.4h10ZM400.34,12.03h87.32V2.03h-87.32v10ZM482.66,7.03v22.57h10V7.03h-10ZM487.66,24.61h-61.05v10h61.05v-10ZM421.61,29.61v26.83h10v-26.83h-10ZM426.61,61.43h59.75v-10h-59.75v10ZM481.37,56.43v22.57h10v-22.57h-10ZM486.37,74h-59.75v10h59.75v-10ZM421.61,79v51.43h10v-51.43h-10ZM426.61,125.43h-26.27v10h26.27v-10ZM511.58,130.43h-5v5h5v-5ZM511.58,7.03V2.03h-5v5h5ZM598.9,7.03h5V2.03h-5v5ZM598.9,29.61v5h5v-5h-5ZM537.85,29.61v-5h-5v5h5ZM537.85,56.43h-5v5h5v-5ZM597.61,56.43h5v-5h-5v5ZM597.61,79v5h5v-5h-5ZM537.85,79v-5h-5v5h5ZM537.85,107.68h-5v5h5v-5ZM598.9,107.68h5v-5h-5v5ZM598.9,130.43v5h5v-5h-5ZM516.58,130.43V7.03h-10v123.4h10ZM511.58,12.03h87.32V2.03h-87.32v10ZM593.9,7.03v22.57h10V7.03h-10ZM598.9,24.61h-61.05v10h61.05v-10ZM532.85,29.61v26.83h10v-26.83h-10ZM537.85,61.43h59.75v-10h-59.75v10ZM592.61,56.43v22.57h10v-22.57h-10ZM597.61,74h-59.75v10h59.75v-10ZM532.85,79v28.68h10v-28.68h-10ZM537.85,112.68h61.05v-10h-61.05v10ZM593.9,107.68v22.75h10v-22.75h-10ZM598.9,125.43h-87.32v10h87.32v-10ZM616.48,113.04l-4.05-2.93-2.49,3.45,3.01,3.01,3.54-3.54ZM630.91,93.06l3.61-3.46-4.15-4.33-3.51,4.86,4.05,2.93ZM666.61,80.11l1.14-4.87h-.01s-.01,0-.01,0l-1.12,4.87ZM715.45,22.39l3.98,3.02,2.75-3.61-3.33-3.08-3.39,3.67ZM700.84,41.63l-3.4,3.67,4.04,3.74,3.33-4.39-3.98-3.02ZM671.98,54.95l-1.14,4.87h.02s.01,0,.01,0l1.11-4.88ZM620.53,115.97l14.43-19.98-8.11-5.86-14.43,19.98,8.11,5.85ZM627.3,96.52c9.49,9.9,24.25,18.19,42.83,18.19v-10c-15.46,0-27.72-6.88-35.61-15.11l-7.22,6.92ZM670.13,114.71c15.61,0,26.46-7.73,26.46-18.88h-10c0,2.91-3.21,8.88-16.46,8.88v10ZM696.59,95.84c0-7.18-4.44-11.66-9.81-14.5-5.13-2.71-12.02-4.45-19.03-6.09l-2.28,9.74c7.24,1.69,12.83,3.19,16.63,5.19,3.56,1.88,4.48,3.59,4.48,5.66h10ZM667.73,75.24c-10.31-2.36-20.96-4.76-29.14-9.68-3.99-2.4-7.2-5.3-9.42-8.93-2.21-3.6-3.62-8.19-3.62-14.26h-10c0,7.71,1.82,14.15,5.1,19.49,3.26,5.31,7.78,9.25,12.79,12.27,9.82,5.9,22.2,8.6,32.05,10.86l2.24-9.75ZM625.55,42.37c0-16.96,14.63-32.19,41.8-32.19V.18c-30.92,0-51.8,18.08-51.8,42.19h10ZM667.35,10.18c18.56,0,33.56,5.58,44.71,15.88l6.79-7.34c-13.28-12.27-30.84-18.53-51.49-18.53v10ZM711.47,19.37l-14.62,19.24,7.96,6.05,14.61-19.24-7.96-6.05ZM704.24,37.96c-11.03-10.22-25.62-14.84-38.73-14.84v10c10.94,0,22.99,3.89,31.94,12.17l6.79-7.34ZM665.5,23.13c-6.57,0-12.26,1.43-16.45,4.47-4.35,3.17-6.68,7.82-6.68,13.11h10c0-2.11.82-3.75,2.57-5.02,1.92-1.4,5.29-2.56,10.56-2.56v-10ZM642.37,40.71c0,3.23,1.04,6.07,2.96,8.43,1.83,2.25,4.28,3.85,6.83,5.07,4.97,2.39,11.73,3.99,18.67,5.61l2.28-9.74c-7.3-1.71-12.85-3.07-16.61-4.89-1.82-.88-2.85-1.69-3.41-2.38-.47-.57-.72-1.18-.72-2.11h-10ZM670.87,59.83c10.34,2.35,21.06,4.89,29.25,9.91,7.79,4.77,13.11,11.65,13.11,23.32h10c0-15.71-7.63-25.57-17.88-31.85-9.84-6.03-22.25-8.86-32.26-11.13l-2.22,9.75ZM713.23,93.06c0,10.03-3.54,18.47-10.48,24.48-7.02,6.07-18.07,10.11-33.92,10.11v10c17.46,0,31.1-4.46,40.46-12.55,9.43-8.15,13.94-19.5,13.94-32.04h-10ZM668.83,127.65c-22.46,0-38.17-7.5-48.82-18.15l-7.07,7.07c12.67,12.66,30.99,21.07,55.89,21.07v-10ZM768.69,130.43h-5v5h5v-5ZM768.69,30.16h5v-5h-5v5ZM732.62,30.16h-5v5h5v-5ZM732.62,7.03V2.03h-5v5h5ZM831.04,7.03h5V2.03h-5v5ZM831.04,30.16v5h5v-5h-5ZM795.15,30.16v-5h-5v5h5ZM795.15,130.43v5h5v-5h-5ZM773.69,130.43V30.16h-10v100.27h10ZM768.69,25.16h-36.08v10h36.08v-10ZM737.62,30.16V7.03h-10v23.13h10ZM732.62,12.03h98.42V2.03h-98.42v10ZM826.04,7.03v23.13h10V7.03h-10ZM831.04,25.16h-35.89v10h35.89v-10ZM790.15,30.16v100.27h10V30.16h-10ZM795.15,125.43h-26.45v10h26.45v-10ZM853.43,130.43h-5v5h5v-5ZM853.43,7.03V2.03h-5v5h5ZM879.7,7.03h5V2.03h-5v5ZM879.7,130.43v5h5v-5h-5ZM858.43,130.43V7.03h-10v123.4h10ZM853.43,12.03h26.27V2.03h-26.27v10ZM874.7,7.03v123.4h10V7.03h-10ZM879.7,125.43h-26.27v10h26.27v-10ZM944.34,130.43l-4.66,1.8,1.24,3.2h3.43v-5ZM896.61,7.03V2.03h-7.29l2.63,6.8,4.66-1.8ZM926.58,7.03l4.7-1.7-1.19-3.3h-3.51v5ZM960.81,101.94l-4.7,1.7,4.72,13.08,4.69-13.09-4.71-1.69ZM994.85,7.03V2.03h-3.52l-1.19,3.31,4.71,1.69ZM1024.81,7.03l4.67,1.8,2.62-6.8h-7.29v5ZM977.27,130.43v5h3.43l1.23-3.2-4.66-1.8ZM949,128.63l-47.73-123.39-9.33,3.61,47.73,123.4,9.33-3.61ZM896.61,12.03h29.97V2.03h-29.97v10ZM921.88,8.73l34.23,94.91,9.41-3.39-34.22-94.91-9.41,3.39ZM965.51,103.63l34.04-94.91-9.41-3.38-34.04,94.9,9.41,3.38ZM994.85,12.03h29.97V2.03h-29.97v10ZM1020.15,5.24l-47.55,123.39,9.33,3.6,47.55-123.4-9.33-3.6ZM977.27,125.43h-32.93v10h32.93v-10ZM1119.48,130.43l-4.7,1.71,1.2,3.29h3.5v-5ZM1111.71,109.16l4.7-1.71-1.2-3.29h-3.5v5ZM1056.58,109.16v-5h-3.5l-1.2,3.29,4.7,1.71ZM1048.81,130.43v5h3.5l1.2-3.29-4.7-1.71ZM1019.95,130.43l-4.66-1.8-2.64,6.8h7.3v-5ZM1067.68,7.03V2.03h-3.43l-1.23,3.2,4.66,1.8ZM1100.61,7.03l4.66-1.8-1.23-3.2h-3.43v5ZM1148.15,130.43v5h7.29l-2.62-6.8-4.67,1.8ZM1084.14,29.79l4.71-1.69-4.69-13.03-4.72,13.02,4.7,1.7ZM1063.61,86.4l-4.7-1.71-2.43,6.71h7.13v-5ZM1104.49,86.4v5h7.11l-2.4-6.69-4.71,1.69ZM1124.18,128.72l-7.77-21.28-9.4,3.43,7.77,21.27,9.4-3.43ZM1111.71,104.16h-55.13v10h55.13v-10ZM1051.88,107.44l-7.77,21.28,9.4,3.43,7.77-21.27-9.4-3.43ZM1048.81,125.43h-28.86v10h28.86v-10ZM1024.61,132.23l47.73-123.4-9.32-3.61-47.73,123.39,9.32,3.61ZM1067.68,12.03h32.93V2.03h-32.93v10ZM1095.94,8.83l47.55,123.4,9.33-3.6-47.55-123.39-9.33,3.6ZM1148.15,125.43h-28.67v10h28.67v-10ZM1079.44,28.09l-20.53,56.61,9.4,3.41,20.53-56.61-9.4-3.41ZM1063.61,91.4h40.88v-10h-40.88v10ZM1109.2,84.71l-20.35-56.61-9.41,3.38,20.35,56.61,9.41-3.38ZM1165.1,130.43h-5v5h5v-5ZM1165.1,7.03V2.03h-5v5h5ZM1191.37,7.03h5V2.03h-5v5ZM1191.37,107.31h-5v5h5v-5ZM1243.54,107.31h5v-5h-5v5ZM1243.54,130.43v5h5v-5h-5ZM1170.1,130.43V7.03h-10v123.4h10ZM1165.1,12.03h26.27V2.03h-26.27v10ZM1186.37,7.03v100.27h10V7.03h-10ZM1191.37,112.31h52.17v-10h-52.17v10ZM1238.54,107.31v23.12h10v-23.12h-10ZM1243.54,125.43h-78.44v10h78.44v-10Z"/>
    </g>
  </g>
</svg>