<svg width="1201" height="168" viewBox="0 0 1201 168" fill="none" xmlns="http://www.w3.org/2000/svg">
<rect width="1201" height="168" fill="#F5F5F5"/>
<mask id="path-1-outside-1_8_4" maskUnits="userSpaceOnUse" x="1.34766" y="18.1211" width="1189" height="139" fill="black">
<rect fill="white" x="1.34766" y="18.1211" width="1189" height="139"/>
<path d="M56.9603 149.121L9.23027 25.7261H39.2003L73.4253 120.631L107.465 25.7261H137.435L89.8903 149.121H56.9603ZM148.83 149.121V25.7261H175.1V149.121H148.83ZM193.677 87.5161C193.677 48.4811 223.277 23.6911 259.352 23.6911C284.882 23.6911 300.977 36.0861 310.412 50.7011L288.582 62.5411C282.847 53.8461 272.302 47.0011 259.352 47.0011C236.967 47.0011 220.687 64.2061 220.687 87.5161C220.687 110.826 236.967 128.031 259.352 128.031C270.637 128.031 280.627 123.406 285.992 118.596V103.611H253.062V81.0411H311.892V128.216C299.312 142.276 281.737 151.526 259.352 151.526C223.277 151.526 193.677 126.366 193.677 87.5161ZM380.08 149.121V25.7261H467.4V48.2961H406.35V75.1211H466.105V97.6911H406.35V149.121H380.08ZM485.769 149.121V25.7261H573.089V48.2961H512.039V75.1211H571.794V97.6911H512.039V126.366H573.089V149.121H485.769ZM585.115 131.731L599.545 111.751C608.24 120.816 621.745 128.401 638.765 128.401C653.195 128.401 660.225 121.556 660.225 114.526C660.225 105.276 649.495 102.131 635.25 98.8011C615.085 94.1761 589.185 88.6261 589.185 61.0611C589.185 40.5261 606.945 23.8761 635.99 23.8761C655.6 23.8761 671.88 29.7961 684.09 41.0811L669.475 60.3211C659.485 51.0711 646.165 46.8161 634.14 46.8161C622.3 46.8161 616.01 51.9961 616.01 59.3961C616.01 67.7211 626.37 70.3111 640.615 73.6411C660.965 78.2661 686.865 84.3711 686.865 111.751C686.865 134.321 670.77 151.341 637.47 151.341C613.79 151.341 596.77 143.386 585.115 131.731ZM731.778 149.121V48.8511H695.703V25.7261H794.123V48.8511H758.233V149.121H731.778ZM810.964 149.121V25.7261H837.234V149.121H810.964ZM896.326 149.121L848.596 25.7261H878.566L912.791 120.631L946.831 25.7261H976.801L929.256 149.121H896.326ZM1065.92 149.121L1058.15 127.846H1003.02L995.248 149.121H966.388L1014.12 25.7261H1047.05L1094.59 149.121H1065.92ZM1030.58 48.4811L1010.05 105.091H1050.93L1030.58 48.4811ZM1105.99 149.121V25.7261H1132.26V125.996H1184.43V149.121H1105.99Z"/>
</mask>
<path d="M56.9603 149.121L52.297 150.925L53.5333 154.121H56.9603V149.121ZM9.23027 25.7261V20.7261H1.93523L4.56698 27.5299L9.23027 25.7261ZM39.2003 25.7261L43.9038 24.0299L42.7123 20.7261H39.2003V25.7261ZM73.4253 120.631L68.7218 122.327L73.438 135.405L78.1317 122.319L73.4253 120.631ZM107.465 25.7261V20.7261H103.947L102.759 24.038L107.465 25.7261ZM137.435 25.7261L142.101 27.5238L144.72 20.7261H137.435V25.7261ZM89.8903 149.121V154.121H93.3221L94.5559 150.919L89.8903 149.121ZM61.6236 147.317L13.8936 23.9223L4.56698 27.5299L52.297 150.925L61.6236 147.317ZM9.23027 30.7261H39.2003V20.7261H9.23027V30.7261ZM34.4968 27.4223L68.7218 122.327L78.1288 118.935L43.9038 24.0299L34.4968 27.4223ZM78.1317 122.319L112.172 27.4142L102.759 24.038L68.7189 118.943L78.1317 122.319ZM107.465 30.7261H137.435V20.7261H107.465V30.7261ZM132.77 23.9284L85.2246 147.323L94.5559 150.919L142.101 27.5238L132.77 23.9284ZM89.8903 144.121H56.9603V154.121H89.8903V144.121ZM148.83 149.121H143.83V154.121H148.83V149.121ZM148.83 25.7261V20.7261H143.83V25.7261H148.83ZM175.1 25.7261H180.1V20.7261H175.1V25.7261ZM175.1 149.121V154.121H180.1V149.121H175.1ZM153.83 149.121V25.7261H143.83V149.121H153.83ZM148.83 30.7261H175.1V20.7261H148.83V30.7261ZM170.1 25.7261V149.121H180.1V25.7261H170.1ZM175.1 144.121H148.83V154.121H175.1V144.121ZM310.412 50.7011L312.796 55.0963L317.539 52.5233L314.612 47.9892L310.412 50.7011ZM288.582 62.5411L284.408 65.2941L286.933 69.1232L290.966 66.9362L288.582 62.5411ZM285.992 118.596L289.329 122.319L290.992 120.829V118.596H285.992ZM285.992 103.611H290.992V98.6111H285.992V103.611ZM253.062 103.611H248.062V108.611H253.062V103.611ZM253.062 81.0411V76.0411H248.062V81.0411H253.062ZM311.892 81.0411H316.892V76.0411H311.892V81.0411ZM311.892 128.216L315.618 131.55L316.892 130.126V128.216H311.892ZM198.677 87.5161C198.677 51.5776 225.691 28.6911 259.352 28.6911V18.6911C220.863 18.6911 188.677 45.3846 188.677 87.5161H198.677ZM259.352 28.6911C282.949 28.6911 297.562 40.0153 306.211 53.4129L314.612 47.9892C304.392 32.1569 286.814 18.6911 259.352 18.6911V28.6911ZM308.028 46.3059L286.198 58.1459L290.966 66.9362L312.796 55.0963L308.028 46.3059ZM292.756 59.7881C286.175 49.8108 274.122 42.0011 259.352 42.0011V52.0011C270.482 52.0011 279.519 57.8813 284.408 65.2941L292.756 59.7881ZM259.352 42.0011C233.976 42.0011 215.687 61.6797 215.687 87.5161H225.687C225.687 66.7325 239.957 52.0011 259.352 52.0011V42.0011ZM215.687 87.5161C215.687 113.353 233.976 133.031 259.352 133.031V123.031C239.957 123.031 225.687 108.3 225.687 87.5161H215.687ZM259.352 133.031C271.876 133.031 283.053 127.946 289.329 122.319L282.654 114.873C278.201 118.866 269.397 123.031 259.352 123.031V133.031ZM290.992 118.596V103.611H280.992V118.596H290.992ZM285.992 98.6111H253.062V108.611H285.992V98.6111ZM258.062 103.611V81.0411H248.062V103.611H258.062ZM253.062 86.0411H311.892V76.0411H253.062V86.0411ZM306.892 81.0411V128.216H316.892V81.0411H306.892ZM308.166 124.882C296.463 137.961 280.211 146.526 259.352 146.526V156.526C283.262 156.526 302.16 146.591 315.618 131.55L308.166 124.882ZM259.352 146.526C225.721 146.526 198.677 123.298 198.677 87.5161H188.677C188.677 129.434 220.832 156.526 259.352 156.526V146.526ZM380.08 149.121H375.08V154.121H380.08V149.121ZM380.08 25.7261V20.7261H375.08V25.7261H380.08ZM467.4 25.7261H472.4V20.7261H467.4V25.7261ZM467.4 48.2961V53.2961H472.4V48.2961H467.4ZM406.35 48.2961V43.2961H401.35V48.2961H406.35ZM406.35 75.1211H401.35V80.1211H406.35V75.1211ZM466.105 75.1211H471.105V70.1211H466.105V75.1211ZM466.105 97.6911V102.691H471.105V97.6911H466.105ZM406.35 97.6911V92.6911H401.35V97.6911H406.35ZM406.35 149.121V154.121H411.35V149.121H406.35ZM385.08 149.121V25.7261H375.08V149.121H385.08ZM380.08 30.7261H467.4V20.7261H380.08V30.7261ZM462.4 25.7261V48.2961H472.4V25.7261H462.4ZM467.4 43.2961H406.35V53.2961H467.4V43.2961ZM401.35 48.2961V75.1211H411.35V48.2961H401.35ZM406.35 80.1211H466.105V70.1211H406.35V80.1211ZM461.105 75.1211V97.6911H471.105V75.1211H461.105ZM466.105 92.6911H406.35V102.691H466.105V92.6911ZM401.35 97.6911V149.121H411.35V97.6911H401.35ZM406.35 144.121H380.08V154.121H406.35V144.121ZM485.769 149.121H480.769V154.121H485.769V149.121ZM485.769 25.7261V20.7261H480.769V25.7261H485.769ZM573.089 25.7261H578.089V20.7261H573.089V25.7261ZM573.089 48.2961V53.2961H578.089V48.2961H573.089ZM512.039 48.2961V43.2961H507.039V48.2961H512.039ZM512.039 75.1211H507.039V80.1211H512.039V75.1211ZM571.794 75.1211H576.794V70.1211H571.794V75.1211ZM571.794 97.6911V102.691H576.794V97.6911H571.794ZM512.039 97.6911V92.6911H507.039V97.6911H512.039ZM512.039 126.366H507.039V131.366H512.039V126.366ZM573.089 126.366H578.089V121.366H573.089V126.366ZM573.089 149.121V154.121H578.089V149.121H573.089ZM490.769 149.121V25.7261H480.769V149.121H490.769ZM485.769 30.7261H573.089V20.7261H485.769V30.7261ZM568.089 25.7261V48.2961H578.089V25.7261H568.089ZM573.089 43.2961H512.039V53.2961H573.089V43.2961ZM507.039 48.2961V75.1211H517.039V48.2961H507.039ZM512.039 80.1211H571.794V70.1211H512.039V80.1211ZM566.794 75.1211V97.6911H576.794V75.1211H566.794ZM571.794 92.6911H512.039V102.691H571.794V92.6911ZM507.039 97.6911V126.366H517.039V97.6911H507.039ZM512.039 131.366H573.089V121.366H512.039V131.366ZM568.089 126.366V149.121H578.089V126.366H568.089ZM573.089 144.121H485.769V154.121H573.089V144.121ZM585.115 131.731L581.062 128.804L578.569 132.256L581.58 135.267L585.115 131.731ZM599.545 111.751L603.153 108.29L599.003 103.962L595.492 108.824L599.545 111.751ZM635.25 98.8011L636.388 93.9324L636.378 93.93L636.368 93.9276L635.25 98.8011ZM684.09 41.0811L688.072 44.1055L690.818 40.4905L687.484 37.4092L684.09 41.0811ZM669.475 60.3211L666.078 63.9899L670.122 67.7348L673.457 63.3455L669.475 60.3211ZM640.615 73.6411L639.477 78.5098L639.492 78.5133L639.507 78.5168L640.615 73.6411ZM589.168 134.659L603.598 114.679L595.492 108.824L581.062 128.804L589.168 134.659ZM595.937 115.212C605.431 125.111 620.188 133.401 638.765 133.401V123.401C623.302 123.401 611.049 116.522 603.153 108.29L595.937 115.212ZM638.765 133.401C654.371 133.401 665.225 125.673 665.225 114.526H655.225C655.225 117.44 652.019 123.401 638.765 123.401V133.401ZM665.225 114.526C665.225 107.346 660.786 102.861 655.416 100.023C650.285 97.3116 643.396 95.5705 636.388 93.9324L634.112 103.67C641.349 105.362 646.947 106.858 650.743 108.864C654.299 110.743 655.225 112.456 655.225 114.526H665.225ZM636.368 93.9276C626.06 91.5635 615.408 89.1666 607.233 84.249C603.245 81.85 600.036 78.9496 597.808 75.3208C595.598 71.7209 594.185 67.1302 594.185 61.0611H584.185C584.185 68.7745 586.009 75.2144 589.286 80.5523C592.545 85.8613 597.071 89.8059 602.078 92.8181C611.895 98.7231 624.275 101.414 634.132 103.675L636.368 93.9276ZM594.185 61.0611C594.185 44.1 608.817 28.8761 635.99 28.8761V18.8761C605.073 18.8761 584.185 36.9522 584.185 61.0611H594.185ZM635.99 28.8761C654.551 28.8761 669.553 34.4538 680.696 44.753L687.484 37.4092C674.207 25.1383 656.649 18.8761 635.99 18.8761V28.8761ZM680.108 38.0566L665.493 57.2966L673.457 63.3455L688.072 44.1055L680.108 38.0566ZM672.872 56.6523C661.838 46.4357 647.251 41.8161 634.14 41.8161V51.8161C645.079 51.8161 657.132 55.7065 666.078 63.9899L672.872 56.6523ZM634.14 41.8161C627.571 41.8161 621.881 43.2425 617.694 46.2874C613.34 49.4541 611.01 54.1062 611.01 59.3961H621.01C621.01 57.286 621.825 55.6481 623.576 54.3748C625.494 52.9797 628.869 51.8161 634.14 51.8161V41.8161ZM611.01 59.3961C611.01 62.629 612.055 65.4669 613.975 67.8236C615.804 70.0695 618.255 71.6708 620.802 72.8967C625.774 75.2911 632.533 76.8867 639.477 78.5098L641.753 68.7724C634.452 67.0655 628.908 65.7011 625.14 63.8867C623.315 63.0083 622.286 62.1929 621.728 61.5078C621.26 60.9334 621.01 60.3257 621.01 59.3961H611.01ZM639.507 78.5168C649.846 80.8666 660.565 83.405 668.759 88.4261C676.55 93.2005 681.865 100.081 681.865 111.751H691.865C691.865 96.0416 684.231 86.1792 673.984 79.8998C664.14 73.8672 651.734 71.0406 641.723 68.7654L639.507 78.5168ZM681.865 111.751C681.865 121.786 678.329 130.225 671.385 136.227C664.366 142.295 653.311 146.341 637.47 146.341V156.341C654.929 156.341 668.572 151.877 677.925 143.793C687.354 135.642 691.865 124.287 691.865 111.751H681.865ZM637.47 146.341C615.01 146.341 599.295 138.84 588.651 128.196L581.58 135.267C594.245 147.932 612.57 156.341 637.47 156.341V146.341ZM731.778 149.121H726.778V154.121H731.778V149.121ZM731.778 48.8511H736.778V43.8511H731.778V48.8511ZM695.703 48.8511H690.703V53.8511H695.703V48.8511ZM695.703 25.7261V20.7261H690.703V25.7261H695.703ZM794.123 25.7261H799.123V20.7261H794.123V25.7261ZM794.123 48.8511V53.8511H799.123V48.8511H794.123ZM758.233 48.8511V43.8511H753.233V48.8511H758.233ZM758.233 149.121V154.121H763.233V149.121H758.233ZM736.778 149.121V48.8511H726.778V149.121H736.778ZM731.778 43.8511H695.703V53.8511H731.778V43.8511ZM700.703 48.8511V25.7261H690.703V48.8511H700.703ZM695.703 30.7261H794.123V20.7261H695.703V30.7261ZM789.123 25.7261V48.8511H799.123V25.7261H789.123ZM794.123 43.8511H758.233V53.8511H794.123V43.8511ZM753.233 48.8511V149.121H763.233V48.8511H753.233ZM758.233 144.121H731.778V154.121H758.233V144.121ZM810.964 149.121H805.964V154.121H810.964V149.121ZM810.964 25.7261V20.7261H805.964V25.7261H810.964ZM837.234 25.7261H842.234V20.7261H837.234V25.7261ZM837.234 149.121V154.121H842.234V149.121H837.234ZM815.964 149.121V25.7261H805.964V149.121H815.964ZM810.964 30.7261H837.234V20.7261H810.964V30.7261ZM832.234 25.7261V149.121H842.234V25.7261H832.234ZM837.234 144.121H810.964V154.121H837.234V144.121ZM896.326 149.121L891.662 150.925L892.899 154.121H896.326V149.121ZM848.596 25.7261V20.7261H841.3L843.932 27.5299L848.596 25.7261ZM878.566 25.7261L883.269 24.0299L882.078 20.7261H878.566V25.7261ZM912.791 120.631L908.087 122.327L912.803 135.405L917.497 122.319L912.791 120.631ZM946.831 25.7261V20.7261H943.312L942.124 24.038L946.831 25.7261ZM976.801 25.7261L981.466 27.5238L984.085 20.7261H976.801V25.7261ZM929.256 149.121V154.121H932.687L933.921 150.919L929.256 149.121ZM900.989 147.317L853.259 23.9223L843.932 27.5299L891.662 150.925L900.989 147.317ZM848.596 30.7261H878.566V20.7261H848.596V30.7261ZM873.862 27.4223L908.087 122.327L917.494 118.935L883.269 24.0299L873.862 27.4223ZM917.497 122.319L951.537 27.4142L942.124 24.038L908.084 118.943L917.497 122.319ZM946.831 30.7261H976.801V20.7261H946.831V30.7261ZM972.135 23.9284L924.59 147.323L933.921 150.919L981.466 27.5238L972.135 23.9284ZM929.256 144.121H896.326V154.121H929.256V144.121ZM1065.92 149.121L1061.22 150.836L1062.42 154.121H1065.92V149.121ZM1058.15 127.846L1062.85 126.131L1061.65 122.846H1058.15V127.846ZM1003.02 127.846V122.846H999.522L998.322 126.131L1003.02 127.846ZM995.248 149.121V154.121H998.745L999.945 150.836L995.248 149.121ZM966.388 149.121L961.725 147.317L959.093 154.121H966.388V149.121ZM1014.12 25.7261V20.7261H1010.69L1009.46 23.9223L1014.12 25.7261ZM1047.05 25.7261L1051.71 23.9284L1050.48 20.7261H1047.05V25.7261ZM1094.59 149.121V154.121H1101.88L1099.26 147.323L1094.59 149.121ZM1030.58 48.4811L1035.29 46.7897L1030.6 33.7598L1025.88 46.7761L1030.58 48.4811ZM1010.05 105.091L1005.35 103.386L1002.92 110.091H1010.05V105.091ZM1050.93 105.091V110.091H1058.04L1055.64 103.4L1050.93 105.091ZM1070.62 147.406L1062.85 126.131L1053.45 129.561L1061.22 150.836L1070.62 147.406ZM1058.15 122.846H1003.02V132.846H1058.15V122.846ZM998.322 126.131L990.552 147.406L999.945 150.836L1007.72 129.561L998.322 126.131ZM995.248 144.121H966.388V154.121H995.248V144.121ZM971.052 150.925L1018.78 27.5299L1009.46 23.9223L961.725 147.317L971.052 150.925ZM1014.12 30.7261H1047.05V20.7261H1014.12V30.7261ZM1042.38 27.5238L1089.93 150.919L1099.26 147.323L1051.71 23.9284L1042.38 27.5238ZM1094.59 144.121H1065.92V154.121H1094.59V144.121ZM1025.88 46.7761L1005.35 103.386L1014.75 106.796L1035.28 50.1861L1025.88 46.7761ZM1010.05 110.091H1050.93V100.091H1010.05V110.091ZM1055.64 103.4L1035.29 46.7897L1025.88 50.1725L1046.23 106.783L1055.64 103.4ZM1105.99 149.121H1100.99V154.121H1105.99V149.121ZM1105.99 25.7261V20.7261H1100.99V25.7261H1105.99ZM1132.26 25.7261H1137.26V20.7261H1132.26V25.7261ZM1132.26 125.996H1127.26V130.996H1132.26V125.996ZM1184.43 125.996H1189.43V120.996H1184.43V125.996ZM1184.43 149.121V154.121H1189.43V149.121H1184.43ZM1110.99 149.121V25.7261H1100.99V149.121H1110.99ZM1105.99 30.7261H1132.26V20.7261H1105.99V30.7261ZM1127.26 25.7261V125.996H1137.26V25.7261H1127.26ZM1132.26 130.996H1184.43V120.996H1132.26V130.996ZM1179.43 125.996V149.121H1189.43V125.996H1179.43ZM1184.43 144.121H1105.99V154.121H1184.43V144.121Z" fill="#D7F19F" mask="url(#path-1-outside-1_8_4)"/>
</svg>
