<svg width="56" height="56" viewBox="0 0 56 56" fill="none" xmlns="http://www.w3.org/2000/svg">
<circle cx="27.6291" cy="27.6289" r="27.4459" transform="rotate(-179.617 27.6291 27.6289)" fill="#174128"/>
<g clip-path="url(#clip0_630_4341)">
<path d="M39.0131 40.2809L26.6023 27.6397L39.1877 15.1496C39.4092 14.9314 39.4119 14.5762 39.1936 14.3547C39.0873 14.2412 38.9468 14.1838 38.8002 14.1827L29.1491 14.1113C28.9969 14.1102 28.8555 14.1711 28.7477 14.2775L15.759 27.1648C15.5375 27.3831 15.5349 27.7382 15.7531 27.9597L28.5612 41.0041C28.6675 41.112 28.808 41.1694 28.9602 41.1705L38.6057 41.2419C38.9158 41.2442 39.1713 40.9924 39.1736 40.6823C39.1746 40.5358 39.1194 40.3889 39.0131 40.2809ZM29.1996 40.0449L16.9512 27.5683L29.3719 15.2405L37.4333 15.3001L25.4101 27.2362C25.1886 27.4545 25.186 27.8096 25.4042 28.0311L37.2554 40.1044L29.1996 40.0448L29.1996 40.0449Z" fill="#FFFFF3"/>
</g>
<defs>
<clipPath id="clip0_630_4341">
<rect width="27.06" height="27.06" fill="white" transform="translate(14 14) rotate(0.42393)"/>
</clipPath>
</defs>
</svg>
