<svg width="40" height="41" viewBox="0 0 40 41" fill="none" xmlns="http://www.w3.org/2000/svg">
<g clip-path="url(#clip0_1496_2442)">
<circle cx="20" cy="20.7773" r="20" fill="#526B43"/>
</g>
<path d="M25.846 18.2617L25.9238 17.6939L25.3507 17.6939L20.6024 17.6939V15.8193C20.6024 14.7721 20.915 14.0162 21.4737 13.5042L21.4741 13.5038C21.914 13.0998 22.4495 12.9127 22.902 12.8303C23.3513 12.7485 23.686 12.7762 23.6897 12.7765L23.6898 12.7765L23.7139 12.7788L23.7381 12.7788L26.0023 12.7744L26.4938 12.7734L26.5013 12.282L26.544 9.49375L26.5508 9.04955L26.1105 8.99053C25.5347 8.91335 24.5609 8.83152 23.0188 8.83152C21.1208 8.83152 19.5178 9.47942 18.3906 10.6651C17.266 11.8482 16.6581 13.5212 16.6581 15.4954V17.6939H12.7417H12.2417V18.1939V21.1382V21.6382H12.7417H16.6581V31.4432V31.9432H17.1581H20.1024H20.6024V31.4432V21.6382H24.9473H25.3835L25.4427 21.206L25.846 18.2617ZM21.7829 13.8606L21.7822 13.8612C21.2802 14.3307 21.0746 15.0249 21.0746 15.8193V16.7217V17.2217H21.5746H26.4644L25.7935 22.1103H21.5746H21.0746V22.6103V32.4154H16.186V22.6103V22.1103H15.686H11.7695V17.2217H15.686H16.186V16.7217V15.4954C16.186 13.3208 16.8861 11.5425 18.0684 10.3112C19.2491 9.08169 20.9469 8.35938 23.0188 8.35938C25.4562 8.35938 26.5308 8.56656 26.8446 8.64373C26.8447 8.64374 26.8447 8.64375 26.8447 8.64375L27.0265 8.6885L26.9588 13.2467L23.6858 13.248L23.6741 13.2474C23.6612 13.2469 23.6447 13.2462 23.625 13.2457C23.5857 13.2447 23.5342 13.2442 23.4731 13.2457C23.3516 13.2486 23.1895 13.2595 23.0072 13.2906C22.6508 13.3516 22.1722 13.4979 21.7829 13.8606Z" stroke="#FFFFF3"/>
<defs>
<clipPath id="clip0_1496_2442">
<rect width="40" height="40" fill="white" transform="translate(0 0.777344)"/>
</clipPath>
</defs>
</svg>
