<svg width="40" height="41" viewBox="0 0 40 41" fill="none" xmlns="http://www.w3.org/2000/svg">
<circle cx="20" cy="20.7773" r="20" fill="#526B43"/>
<path fill-rule="evenodd" clip-rule="evenodd" d="M13.7791 8.52734C10.4493 8.52734 7.75 11.2267 7.75 14.5565V27.1147C7.75 30.4445 10.4493 33.1439 13.7791 33.1439H26.3374C29.6672 33.1439 32.3665 30.4445 32.3665 27.1147V14.5565C32.3665 11.2267 29.6672 8.52734 26.3374 8.52734H13.7791ZM7.25 14.5565C7.25 10.9505 10.1732 8.02734 13.7791 8.02734H26.3374C29.9433 8.02734 32.8665 10.9505 32.8665 14.5565V27.1147C32.8665 30.7207 29.9433 33.6439 26.3374 33.6439H13.7791C10.1732 33.6439 7.25 30.7207 7.25 27.1147V14.5565ZM20.8129 16.0594C19.8198 15.9121 18.8055 16.0817 17.9143 16.5441C17.0232 17.0066 16.3005 17.7382 15.8491 18.635C15.3977 19.5318 15.2406 20.5481 15.4001 21.5394C15.5596 22.5306 16.0276 23.4463 16.7375 24.1563C17.4475 24.8662 18.3632 25.3342 19.3545 25.4937C20.3457 25.6532 21.362 25.4961 22.2588 25.0447C23.1556 24.5933 23.8873 23.8707 24.3497 22.9795C24.8121 22.0883 24.9817 21.074 24.8345 20.0809C24.6842 19.0678 24.2122 18.13 23.488 17.4058C22.7639 16.6816 21.826 16.2096 20.8129 16.0594ZM17.6841 16.1003C18.6686 15.5895 19.7891 15.4021 20.8863 15.5648C22.0054 15.7307 23.0416 16.2522 23.8416 17.0522C24.6416 17.8523 25.1631 18.8884 25.329 20.0075C25.4917 21.1047 25.3043 22.2252 24.7935 23.2098C24.2826 24.1943 23.4744 24.9927 22.4836 25.4913C21.4929 25.99 20.3701 26.1636 19.275 25.9874C18.1799 25.8112 17.1683 25.2941 16.384 24.5098C15.5997 23.7255 15.0827 22.7139 14.9065 21.6188C14.7302 20.5237 14.9038 19.401 15.4025 18.4102C15.9012 17.4195 16.6995 16.6112 17.6841 16.1003ZM26.9653 13.4286C26.6892 13.4286 26.4653 13.6524 26.4653 13.9286C26.4653 14.2047 26.6892 14.4286 26.9653 14.4286H26.9797C27.2558 14.4286 27.4797 14.2047 27.4797 13.9286C27.4797 13.6524 27.2558 13.4286 26.9797 13.4286H26.9653Z" fill="#FFFFF3"/>
<path d="M17.9143 16.5441L17.638 16.0116L17.638 16.0116L17.9143 16.5441ZM20.8129 16.0594L20.901 15.4659L20.901 15.4659L20.8129 16.0594ZM15.8491 18.635L15.3132 18.3653L15.3132 18.3653L15.8491 18.635ZM15.4001 21.5394L14.8077 21.6347L14.8077 21.6347L15.4001 21.5394ZM16.7375 24.1563L16.3133 24.5805L16.3133 24.5805L16.7375 24.1563ZM19.3545 25.4937L19.4498 24.9013L19.4498 24.9013L19.3545 25.4937ZM22.2588 25.0447L21.9891 24.5088L21.9891 24.5088L22.2588 25.0447ZM24.3497 22.9795L23.8171 22.7031L23.8171 22.7031L24.3497 22.9795ZM24.8345 20.0809L24.2409 20.1689L24.2409 20.1689L24.8345 20.0809ZM23.488 17.4058L23.9123 16.9815L23.9123 16.9815L23.488 17.4058ZM20.8863 15.5648L20.9743 14.9713L20.9743 14.9713L20.8863 15.5648ZM17.6841 16.1003L17.9604 16.6329L17.6841 16.1003ZM25.329 20.0075L24.7355 20.0955L24.7355 20.0955L25.329 20.0075ZM24.7935 23.2098L25.3261 23.4861L25.3261 23.4861L24.7935 23.2098ZM22.4836 25.4913L22.7534 26.0273L22.7534 26.0273L22.4836 25.4913ZM19.275 25.9874L19.3703 25.395L19.3703 25.395L19.275 25.9874ZM16.384 24.5098L16.8083 24.0856L16.8083 24.0856L16.384 24.5098ZM14.9065 21.6188L15.4988 21.5235L15.4988 21.5235L14.9065 21.6188ZM15.4025 18.4102L15.9384 18.68L15.9384 18.68L15.4025 18.4102ZM8.35 14.5565C8.35 11.558 10.7807 9.12734 13.7791 9.12734V7.92734C10.118 7.92734 7.15 10.8953 7.15 14.5565H8.35ZM8.35 27.1147V14.5565H7.15V27.1147H8.35ZM13.7791 32.5439C10.7807 32.5439 8.35 30.1132 8.35 27.1147H7.15C7.15 30.7759 10.118 33.7439 13.7791 33.7439V32.5439ZM26.3374 32.5439H13.7791V33.7439H26.3374V32.5439ZM31.7665 27.1147C31.7665 30.1132 29.3358 32.5439 26.3374 32.5439V33.7439C29.9986 33.7439 32.9665 30.7759 32.9665 27.1147H31.7665ZM31.7665 14.5565V27.1147H32.9665V14.5565H31.7665ZM26.3374 9.12734C29.3358 9.12734 31.7665 11.558 31.7665 14.5565H32.9665C32.9665 10.8953 29.9986 7.92734 26.3374 7.92734V9.12734ZM13.7791 9.12734H26.3374V7.92734H13.7791V9.12734ZM13.7791 7.42734C9.84182 7.42734 6.65 10.6192 6.65 14.5565H7.85C7.85 11.2819 10.5046 8.62734 13.7791 8.62734V7.42734ZM26.3374 7.42734H13.7791V8.62734H26.3374V7.42734ZM33.4665 14.5565C33.4665 10.6192 30.2747 7.42734 26.3374 7.42734V8.62734C29.612 8.62734 32.2665 11.2819 32.2665 14.5565H33.4665ZM33.4665 27.1147V14.5565H32.2665V27.1147H33.4665ZM26.3374 34.2439C30.2747 34.2439 33.4665 31.052 33.4665 27.1147H32.2665C32.2665 30.3893 29.612 33.0439 26.3374 33.0439V34.2439ZM13.7791 34.2439H26.3374V33.0439H13.7791V34.2439ZM6.65 27.1147C6.65 31.052 9.84182 34.2439 13.7791 34.2439V33.0439C10.5046 33.0439 7.85 30.3893 7.85 27.1147H6.65ZM6.65 14.5565V27.1147H7.85V14.5565H6.65ZM18.1907 17.0767C18.9698 16.6724 19.8566 16.5241 20.7249 16.6529L20.901 15.4659C19.783 15.3001 18.6412 15.491 17.638 16.0116L18.1907 17.0767ZM16.385 18.9048C16.7797 18.1207 17.4115 17.481 18.1907 17.0767L17.638 16.0116C16.6348 16.5321 15.8213 17.3557 15.3132 18.3653L16.385 18.9048ZM15.9925 21.4441C15.853 20.5774 15.9904 19.6888 16.385 18.9048L15.3132 18.3653C14.805 19.3748 14.6282 20.5188 14.8077 21.6347L15.9925 21.4441ZM17.1618 23.732C16.5411 23.1113 16.1319 22.3107 15.9925 21.4441L14.8077 21.6347C14.9873 22.7505 15.5141 23.7814 16.3133 24.5805L17.1618 23.732ZM19.4498 24.9013C18.5831 24.7619 17.7825 24.3527 17.1618 23.732L16.3133 24.5805C17.1125 25.3797 18.1433 25.9065 19.2591 26.0861L19.4498 24.9013ZM21.9891 24.5088C21.205 24.9034 20.3164 25.0408 19.4498 24.9013L19.2591 26.0861C20.375 26.2657 21.519 26.0888 22.5286 25.5807L21.9891 24.5088ZM23.8171 22.7031C23.4128 23.4823 22.7731 24.1141 21.9891 24.5088L22.5286 25.5807C23.5381 25.0725 24.3617 24.259 24.8823 23.2558L23.8171 22.7031ZM24.2409 20.1689C24.3697 21.0372 24.2214 21.924 23.8171 22.7031L24.8823 23.2558C25.4028 22.2526 25.5937 21.1108 25.428 19.9929L24.2409 20.1689ZM23.0638 17.8301C23.6969 18.4632 24.1096 19.2832 24.2409 20.1689L25.428 19.9929C25.2589 18.8525 24.7275 17.7967 23.9123 16.9815L23.0638 17.8301ZM20.7249 16.6529C21.6106 16.7842 22.4306 17.1969 23.0638 17.8301L23.9123 16.9815C23.0971 16.1663 22.0413 15.635 20.901 15.4659L20.7249 16.6529ZM20.9743 14.9713C19.7523 14.7901 18.5043 14.9988 17.4077 15.5678L17.9604 16.6329C18.8329 16.1802 19.8259 16.0141 20.7983 16.1583L20.9743 14.9713ZM24.2658 16.628C23.3748 15.7369 22.2208 15.1561 20.9743 14.9713L20.7983 16.1583C21.7901 16.3054 22.7083 16.7675 23.4173 17.4765L24.2658 16.628ZM25.9226 19.9195C25.7377 18.673 25.1569 17.519 24.2658 16.628L23.4173 17.4765C24.1263 18.1855 24.5885 19.1037 24.7355 20.0955L25.9226 19.9195ZM25.3261 23.4861C25.895 22.3896 26.1038 21.1415 25.9226 19.9195L24.7355 20.0955C24.8797 21.0679 24.7136 22.0609 24.2609 22.9334L25.3261 23.4861ZM22.7534 26.0273C23.8568 25.4719 24.7571 24.5827 25.3261 23.4861L24.2609 22.9334C23.8082 23.8059 23.0919 24.5135 22.2139 24.9554L22.7534 26.0273ZM19.1797 26.5798C20.3994 26.776 21.6499 26.5827 22.7534 26.0273L22.2139 24.9554C21.3358 25.3973 20.3408 25.5512 19.3703 25.395L19.1797 26.5798ZM15.9597 24.9341C16.8333 25.8076 17.96 26.3835 19.1797 26.5798L19.3703 25.395C18.3999 25.2388 17.5033 24.7806 16.8083 24.0856L15.9597 24.9341ZM14.3141 21.7141C14.5103 22.9338 15.0862 24.0606 15.9597 24.9341L16.8083 24.0856C16.1132 23.3905 15.655 22.494 15.4988 21.5235L14.3141 21.7141ZM14.8665 18.1405C14.3111 19.2439 14.1178 20.4944 14.3141 21.7141L15.4988 21.5235C15.3427 20.553 15.4965 19.558 15.9384 18.68L14.8665 18.1405ZM17.4077 15.5678C16.3112 16.1367 15.422 17.037 14.8665 18.1405L15.9384 18.68C16.3804 17.8019 17.0879 17.0856 17.9604 16.6329L17.4077 15.5678ZM27.0653 13.9286C27.0653 13.9838 27.0205 14.0286 26.9653 14.0286V12.8286C26.3578 12.8286 25.8653 13.3211 25.8653 13.9286H27.0653ZM26.9653 13.8286C27.0205 13.8286 27.0653 13.8733 27.0653 13.9286H25.8653C25.8653 14.5361 26.3578 15.0286 26.9653 15.0286V13.8286ZM26.9797 13.8286H26.9653V15.0286H26.9797V13.8286ZM26.8797 13.9286C26.8797 13.8733 26.9245 13.8286 26.9797 13.8286V15.0286C27.5872 15.0286 28.0797 14.5361 28.0797 13.9286H26.8797ZM26.9797 14.0286C26.9245 14.0286 26.8797 13.9838 26.8797 13.9286H28.0797C28.0797 13.3211 27.5872 12.8286 26.9797 12.8286V14.0286ZM26.9653 14.0286H26.9797V12.8286H26.9653V14.0286Z" fill="#FFFFF3"/>
</svg>
