<svg width="32" height="32" viewBox="0 0 32 32" fill="none" xmlns="http://www.w3.org/2000/svg">
<path d="M28.2689 0.400943C27.04 -0.209655 25.7042 -0.120936 24.4091 0.654054C23.1954 1.38207 22.0351 2.6946 21.053 4.44811C21.0428 4.46376 21.0148 4.53683 21.0504 4.58119C21.0733 4.60989 21.1166 4.61772 21.1751 4.59684C21.6229 4.45072 22.1471 4.42723 22.7297 4.529C22.7603 4.53422 22.8035 4.53683 22.8417 4.529C22.8748 4.52117 22.9078 4.50291 22.9384 4.47681C24.2615 3.34955 25.6889 3.11471 27.0629 3.79837C28.4471 4.48464 29.386 5.95634 29.7778 8.05429C30.1518 10.0531 29.9788 12.4746 29.2944 14.87C28.6481 17.1219 26.2996 20.762 24.3276 23.6819C24.2946 23.7315 24.1699 23.9403 24.1444 24.0029C23.9332 24.5091 23.717 24.9918 23.5032 25.4354C23.4473 25.5503 23.4091 25.6859 23.4676 25.7251C23.4752 25.7303 23.4854 25.7329 23.4956 25.7329C23.5236 25.7329 23.5567 25.712 23.5923 25.6651C27.1698 21.3622 30.4953 15.9268 31.3273 13.02C32.8642 7.65766 31.4927 1.99789 28.2689 0.400943Z" fill="#0A0A0A"/>
<path d="M18.8393 30.1168C18.7961 30.1168 18.7477 30.1194 18.6968 30.1221C18.4271 30.1325 18.0887 30.1429 17.7809 30.1116C17.6689 30.1012 17.5849 30.0986 17.3992 30.1925C16.9361 30.4274 16.4578 30.55 16.015 30.5526H16.0125C13.5088 30.5526 9.37407 25.6209 7.71256 23.4994C6.6668 22.2052 5.82205 20.9605 5.23683 20.055C3.95698 18.0771 3.0588 16.2557 2.58808 14.5857C1.24717 9.6018 2.19115 5.18149 4.88061 3.83765C5.86785 3.34448 6.8729 3.3236 7.87285 3.77503C9.67177 4.58655 11.2213 6.83845 12.122 9.95146C12.2823 10.5046 12.5113 11.4519 12.7785 12.5478C13.2772 14.5962 13.8955 17.1455 14.5189 19.0791C14.9311 20.2846 15.4069 21.0805 15.412 21.0883C15.4298 21.1144 15.8369 21.7433 16.3509 21.618C16.8674 21.4928 17.6664 19.0243 18.1422 16.7098C18.277 16.167 18.2083 15.3059 18.1473 14.544C18.1193 14.21 18.0938 13.8942 18.0887 13.6229C18.0811 13.3515 18.0455 13.2941 17.9691 13.2784C17.8928 13.2602 17.8623 13.3358 17.791 13.5994C17.2134 15.7443 16.5468 17.9362 15.987 17.9362C15.2695 17.9362 14.3561 14.4814 13.5495 11.4336C13.1017 9.74531 12.6793 8.15098 12.3231 7.25074C10.9007 3.67326 8.88299 1.14998 6.78893 0.32802C5.71518 -0.0920919 4.66433 -0.052951 3.66437 0.448052C0.445672 2.05544 -0.907963 7.72043 0.641593 13.0775C1.38202 15.6373 4.12746 20.2664 7.31563 24.3318C8.9695 26.4402 10.6056 28.2224 12.0406 29.4801C13.6818 30.9179 15.0176 31.6459 16.015 31.6459H16.0176C16.7275 31.6459 17.5951 31.2624 18.8266 30.4065C18.9233 30.3412 18.9538 30.2447 18.9335 30.1847C18.9208 30.1429 18.8851 30.1221 18.8393 30.1194V30.1168Z" fill="#0A0A0A"/>
<path d="M17.5061 23.283C13.2289 24.4572 10.1527 6.56723 4.51676 10.3926C-0.424521 14.0953 13.8752 30.4797 19.0174 29.0654L19.0556 29.055C24.1979 27.6407 28.5921 6.12102 22.5084 5.4478C15.7631 5.02508 21.9563 22.0592 17.5442 23.2726L17.5061 23.283Z" fill="#0A0A0A"/>
</svg>
