<svg width="106" height="106" viewBox="0 0 106 106" fill="none" xmlns="http://www.w3.org/2000/svg">
<ellipse cx="52.5" cy="53" rx="52.5" ry="53" fill="#B6D475"/>
<path d="M0 52.8419C0 81.9523 23.9762 106 53 106C82.0239 106 106 81.9523 106 52.8419C106 23.7313 82.0239 0 53 0C23.9762 0 0 23.7313 0 52.8419ZM72.5597 77.5221C60.2557 69.9285 44.4824 68.0297 26.1845 72.143C21.7678 72.7762 21.1369 66.4477 24.9226 65.8151C45.1131 61.0686 62.1489 63.2837 76.0296 71.8268C79.5 74.0419 76.0296 79.4209 72.5597 77.5221ZM77.9227 63.2837C63.7261 54.4238 41.9584 51.8924 25.2381 56.9552C19.875 58.5372 17.9822 50.3105 23.0298 49.0448C42.2738 43.3494 65.9347 46.1971 82.3392 56.3221C86.7557 59.1703 82.3392 66.1314 77.9227 63.2837ZM22.7143 40.8179C17.3512 42.7163 13.881 33.5402 19.875 31.3253C38.4881 25.6298 70.0358 26.5791 89.5954 38.2865C94.9585 41.1343 89.9108 49.9942 84.2324 46.8297C67.1966 36.7044 38.8036 35.7552 22.7143 40.8179Z" fill="#0A0A0A"/>
</svg>
