<svg width="41" height="40" viewBox="0 0 41 40" fill="none" xmlns="http://www.w3.org/2000/svg">
<circle cx="20.7974" cy="20" r="20" fill="#526B43"/>
<path d="M32.1835 13.3223V16.9473C30.7706 16.8464 29.3755 16.5189 28.1095 15.9182L28.1095 15.9181L28.1013 15.9144C27.489 15.6373 26.9109 15.2768 26.3209 14.8911L25.5495 14.3869L25.5474 15.3085C25.5447 16.4445 25.5455 17.5784 25.5462 18.7107C25.5477 20.9012 25.5491 23.0859 25.5261 25.2689C25.4403 26.7706 24.9436 28.2611 24.0758 29.4908L24.0757 29.4907L24.0712 29.4973C22.6696 31.5524 20.2308 32.8937 17.738 32.9354L17.7279 32.9356L17.7178 32.9361C16.1956 33.0232 14.6641 32.608 13.3513 31.834C11.1854 30.5568 9.6617 28.2168 9.43729 25.7193C9.411 25.1669 9.40223 24.6211 9.42369 24.091C9.61982 22.055 10.6302 20.1058 12.1919 18.7821L12.192 18.7822L12.197 18.7778C13.8733 17.3179 16.1819 16.582 18.3817 16.8644C18.3862 17.6869 18.3722 18.4967 18.3581 19.313C18.3492 19.8261 18.3404 20.3418 18.336 20.8647C17.2446 20.6749 16.0583 20.8555 15.1129 21.5092C14.3008 22.0377 13.6893 22.8392 13.3685 23.742C13.1283 24.3398 13.1534 24.9978 13.1733 25.516C13.1766 25.6031 13.1798 25.6863 13.1815 25.7646L13.1822 25.795L13.1866 25.8251C13.4911 27.927 15.4947 29.71 17.6967 29.5263C19.1465 29.5035 20.5113 28.6664 21.2551 27.4539L21.2596 27.4465L21.2639 27.439C21.2806 27.4095 21.2983 27.3787 21.3167 27.3467C21.5089 27.0128 21.7784 26.5444 21.7962 26.0023C21.8783 24.5024 21.8768 23.0012 21.8753 21.5142C21.8747 20.9655 21.8742 20.4188 21.8778 19.8748L21.8778 19.8724C21.8812 18.2218 21.8804 16.5744 21.8796 14.9289C21.8782 12.1505 21.8769 9.37756 21.8957 6.60359C22.5842 6.59628 23.2663 6.59539 23.9501 6.59449C24.4296 6.59386 24.9099 6.59323 25.3938 6.59038C25.5708 8.27496 26.2321 9.97406 27.5009 11.201C28.7745 12.4629 30.5061 13.0744 32.1835 13.3223Z" stroke="#FFFFF3"/>
</svg>
