<?xml version="1.0" encoding="utf-8"?>
<!-- Generator: Adobe Illustrator 28.1.0, SVG Export Plug-In . SVG Version: 6.00 Build 0)  -->
<svg version="1.1" id="Layer_2_00000041285934970171628310000008486423022348278944_"
	 xmlns="http://www.w3.org/2000/svg" xmlns:xlink="http://www.w3.org/1999/xlink" x="0px" y="0px" viewBox="0 0 168.2 162.2"
	 style="enable-background:new 0 0 168.2 162.2;" xml:space="preserve">
<style type="text/css">
	.st0{fill:#B6D475;}
</style>
<g>
	<g>
		<path class="st0" d="M132.4,17.2c-4.8-2.3-10.1-2-15.2,1c-4.8,2.8-9.3,7.8-13.2,14.5c0,0.1-0.2,0.3,0,0.5c0.1,0.1,0.3,0.1,0.5,0.1
			c1.8-0.6,3.8-0.6,6.1-0.3c0.1,0,0.3,0,0.4,0s0.3-0.1,0.4-0.2c5.2-4.3,10.8-5.2,16.2-2.6c5.4,2.6,9.1,8.3,10.7,16.3
			c1.5,7.7,0.8,16.9-1.9,26.1c-2.5,8.6-11.8,22.6-19.5,33.8c-0.1,0.2-0.6,1-0.7,1.2c-0.8,1.9-1.7,3.8-2.5,5.5
			c-0.2,0.4-0.4,1-0.1,1.1h0.1c0.1,0,0.2-0.1,0.4-0.3c14.1-16.5,27.1-37.3,30.4-48.5C150.5,45,145.1,23.3,132.4,17.2L132.4,17.2z"/>
		<path class="st0" d="M95.4,131.1c-0.2,0-0.4,0-0.6,0c-1.1,0-2.4,0.1-3.6,0c-0.4,0-0.8-0.1-1.5,0.3c-1.8,0.9-3.7,1.4-5.4,1.4l0,0
			c-9.8,0-26.1-18.9-32.6-27c-4.1-5-7.4-9.7-9.7-13.2c-5-7.6-8.6-14.6-10.4-21c-5.3-19.1-1.6-36,9-41.2c3.9-1.9,7.8-2,11.8-0.2
			c7.1,3.1,13.2,11.7,16.7,23.7c0.6,2.1,1.5,5.8,2.6,10c2,7.9,4.4,17.6,6.8,25c1.6,4.6,3.5,7.7,3.5,7.7c0.1,0.1,1.7,2.5,3.7,2
			s5.2-9.9,7-18.8c0.5-2.1,0.3-5.4,0-8.3c-0.1-1.3-0.2-2.5-0.2-3.5s-0.2-1.3-0.5-1.3c-0.3-0.1-0.4,0.2-0.7,1.2
			C89,76,86.4,84.4,84.2,84.4l0,0c-2.8,0-6.4-13.2-9.6-24.9c-1.8-6.5-3.4-12.6-4.8-16C64.2,29.7,56.2,20.1,48,16.9
			c-4.2-1.6-8.3-1.5-12.3,0.5c-12.6,6.2-18,27.9-11.9,48.4c2.9,9.8,13.7,27.6,26.2,43.1c6.5,8.1,12.9,14.9,18.6,19.7
			c6.4,5.5,11.7,8.3,15.6,8.3l0,0c2.8,0,6.2-1.5,11-4.8c0.4-0.2,0.5-0.6,0.4-0.8C95.7,131.2,95.5,131.1,95.4,131.1L95.4,131.1z"/>
	</g>
	<path class="st0" d="M90.1,104.9c-16.8,4.5-28.9-64.1-51-49.4c-19.4,14.2,36.8,77,57,71.6h0.2c20.2-5.4,37.5-87.9,13.6-90.5
		c-26.5-1.6-2.2,63.7-19.5,68.3C90.3,104.8,90.1,104.9,90.1,104.9z"/>
</g>
</svg>
