<?xml version="1.0" encoding="UTF-8"?>
<svg id="Layer_2" data-name="Layer 2" xmlns="http://www.w3.org/2000/svg" width="390.09" height="916" viewBox="0 0 390.09 916">
  <defs>
    <style>
      .cls-1 {
        fill: #d7f19f;
        stroke-width: 0px;
      }
    </style>
  </defs>
  <g id="Layer_1-2" data-name="Layer 1">
    <g>
      <path class="cls-1" d="M316.85,899.04c28.25,7.38,73.24,16.96,73.24,16.96v-182.36s-28.63-21.37-52.73-25.44c-28.41-4.8-44.54,3.26-73.36,10.52-28.43,7.69-42.44,19.91-70.2,14.93-26.33-4.73-26.63-22.7-51.27-33.93-30.92-9.79-53.87-6.46-86.43,0-24.44,5.55-33.21,15.35-56.11,19.3v82.81c47.18,25.52,81.96-24.16,124.95,4.97,16.33,16.85,18.2,26.3,35.16,40.29,44.4,36.63,93.42,35.4,156.74,51.95Z"/>
      <path class="cls-1" d="M316.85,205.48c28.25,7.38,73.24,16.96,73.24,16.96V40.08s-28.63-21.37-52.73-25.44c-28.41-4.8-44.54,3.26-73.36,10.52-28.43,7.69-42.44,19.91-70.2,14.93-26.33-4.73-26.63-22.7-51.27-33.93C111.61-3.64,88.66-.3,56.11,6.16,31.67,11.7,22.9,21.5,0,25.45v82.81c47.18,25.52,81.96-24.16,124.95,4.97,16.33,16.85,18.2,26.3,35.16,40.29,44.4,36.63,93.42,35.4,156.74,51.95Z"/>
      <rect class="cls-1" y="102.36" width="390" height="634.1"/>
    </g>
  </g>
</svg>