<?xml version="1.0" encoding="UTF-8"?>
<svg id="Layer_2" data-name="Layer 2" xmlns="http://www.w3.org/2000/svg" width="390" height="995" viewBox="0 0 390 995">
  <defs>
    <style>
      .cls-1 {
        fill: #174128;
      }

      .cls-1, .cls-2 {
        stroke-width: 0px;
      }

      .cls-2 {
        fill: #ffd9fd;
      }
    </style>
  </defs>
  <g id="Layer_1-2" data-name="Layer 1">
    <g>
      <g>
        <path class="cls-1" d="M62.65,668.63c-24.16-4.05-62.65-9.3-62.65-9.3v99.99s17.56,5.91,38.17,8.14c24.3,2.63,32.15,3.74,56.62-3.68,24.47-7.42,22.23-11.27,46.58-12.76,25.5-1.56,47.92,7.83,64.92,7.83,23.17,0,61.09-12.4,92.45-8.38,25.25,3.24,30.02,5.56,49.21,10.71,16.76,3.84,42.05,6.83,42.05,6.83v-97.96c-40.36-13.99-81.35,8.37-122.62,12.55-20.38,2.06-44.94,2.25-68.12-9.39-38.36-18.31-88.32,6.53-136.6-4.58Z"/>
        <path class="cls-1" d="M62.65,894.18c-24.16-4.05-62.65-9.3-62.65-9.3v99.99s17.56,5.91,38.17,8.14c24.3,2.63,32.15,3.74,56.62-3.68,24.47-7.42,22.23-11.27,46.58-12.76,25.5-1.56,47.92,7.83,64.92,7.83,23.17,0,61.09-12.4,92.45-8.38,25.25,3.24,30.02,5.56,49.21,10.71,16.76,3.84,42.05,6.83,42.05,6.83v-97.96c-40.36-13.99-81.35,8.37-122.62,12.55-20.38,2.06-44.94,2.25-68.12-9.39-38.36-18.31-88.32,6.53-136.6-4.58Z"/>
        <rect class="cls-1" y="714.2" width="390" height="208.2"/>
      </g>
      <g>
        <path class="cls-2" d="M63.11,562.19c-24.34-5.65-63.11-12.99-63.11-12.99v136.34s21.63,6.94,42.35,10.96c24.38,5.37,36.87,5.59,68.25,4.03,26.74-2.57,41.13-7.61,67.03-5.15,23.16,4.7,15.84,8.05,38.09,15.88,24.68,8.28,49.22,5.64,76.78-1.79,19.36-5.99,39.69-12.63,59.41-15.66,20.72-2.24,38.09,5.37,38.09,5.37v-32.28s-17.73-15.48-32.82-22.73c-40.65-19.54-91.69,10.94-128.74-11.36-16.17-9.74-15.68-20.14-30.29-30.85-38.25-28.05-80.49-27.1-135.05-39.78Z"/>
        <path class="cls-2" d="M63.11,12.99C38.77,7.33,0,0,0,0v136.34s21.63,6.94,42.35,10.96c24.38,5.37,36.87,5.59,68.25,4.03,26.74-2.57,41.13-7.61,67.03-5.15,23.16,4.7,15.84,8.05,38.09,15.88,24.68,8.28,49.22,5.64,76.78-1.79,19.36-5.99,39.69-12.63,59.41-15.66,20.72-2.24,38.09,5.37,38.09,5.37v-32.28s-17.73-15.48-32.82-22.73c-40.65-19.54-91.69,10.94-128.74-11.36-16.17-9.74-15.68-20.14-30.29-30.85C159.9,24.72,117.66,25.66,63.11,12.99Z"/>
        <rect class="cls-2" y="132.5" width="390" height="538.19"/>
      </g>
    </g>
  </g>
</svg>