<?xml version="1.0" encoding="UTF-8"?>
<svg id="Layer_2" data-name="Layer 2" xmlns="http://www.w3.org/2000/svg" width="390" height="798" viewBox="0 0 390 798">
  <defs>
    <style>
      .cls-1 {
        fill: #174128;
        stroke-width: 0px;
      }
    </style>
  </defs>
  <g id="Layer_1-2" data-name="Layer 1">
    <g>
      <path class="cls-1" d="M51.48,17.24C19.19,6.8,0,0,0,0v268.31s.58,13.21,28.14,18.96c32.47,6.78,53.21-4.29,83.72-15.03,30.13-11.26,48.63-28.08,80.37-21.03,30.1,6.68,31.72,33.91,58.63,47.98,32.2,14.96,66.46,10.71,95.58,1.21,25.42-8.23,16.76-6.42,43.57-18.95-.2-14.04-.14-17.68-.07-18.52l.07-1.95v-104.81c-51.19-17.72-69.94,32.71-119.11-8.49-21.46-17.99-24.4-35.21-40.21-56.99C196.52,53.78,123.87,40.64,51.48,17.24Z"/>
      <path class="cls-1" d="M51.48,506.24c-32.29-10.44-51.48-17.24-51.48-17.24v268.31s.58,13.21,28.14,18.96c32.47,6.78,53.21-4.29,83.72-15.03,30.13-11.26,48.63-28.08,80.37-21.03,30.1,6.68,31.72,33.91,58.63,47.98,32.2,14.96,66.46,10.71,95.58,1.21,25.42-8.23,16.76-6.42,43.57-18.95-.3-21.39,0-18.64,0-18.64v-106.65c-51.19-17.72-69.94,32.71-119.11-8.49-21.46-17.99-24.4-35.21-40.21-56.99-34.16-36.9-106.81-50.04-179.2-73.44Z"/>
      <rect class="cls-1" y="239" width="390" height="424"/>
    </g>
  </g>
</svg>