<?xml version="1.0" encoding="UTF-8"?>
<svg id="Layer_2" data-name="Layer 2" xmlns="http://www.w3.org/2000/svg" width="390" height="767" viewBox="0 0 390 767">
  <defs>
    <style>
      .cls-1 {
        fill: #ffd9fd;
        stroke-width: 0px;
      }
    </style>
  </defs>
  <g id="Layer_1-2" data-name="Layer 1">
    <g>
      <path class="cls-1" d="M58.51,510.33C29.18,498.97,0,476.17,0,476.17v244.83s8.7,28.19,33.72,34.45c29.49,7.38,47.32-6.06,76.04-16.31,27.65-8.98,41.97-12.03,71.22-9.59,29.69,5.74,36.16,6.34,61.97,18.45,32.1,15.07,51.81,24.92,85.6,14.99,23.57-6.93,29.15-11.46,41.03-20.01,19.8-14.65,20.41-19.54,20.41-19.54v-171.56c-47.74-4.89-78,50.98-125.33,19.42-19.49-19.57-45.51-33.16-71.68-43.39-52.35-20.47-68.75,7.89-134.48-17.58Z"/>
      <path class="cls-1" d="M58.51,34.16C29.18,22.8,0,0,0,0v244.83s8.7,28.19,33.72,34.45c29.49,7.38,47.32-6.06,76.04-16.31,27.65-8.98,41.97-12.03,71.22-9.59,29.69,5.74,36.16,6.34,61.97,18.45,32.1,15.07,51.81,24.92,85.6,14.99,23.57-6.93,29.15-11.46,41.03-20.01,19.8-14.65,20.41-19.54,20.41-19.54V75.71c-47.74-4.89-78,50.98-125.33,19.42-19.49-19.57-45.51-33.16-71.68-43.39-52.35-20.47-68.75,7.89-134.48-17.58Z"/>
      <rect class="cls-1" y="214.4" width="390" height="374.13"/>
    </g>
  </g>
</svg>