<?xml version="1.0" encoding="UTF-8"?>
<svg id="Layer_2" data-name="Layer 2" xmlns="http://www.w3.org/2000/svg" width="390" height="1011" viewBox="0 0 390 1011">
  <defs>
    <style>
      .cls-1 {
        fill: #d7f19f;
      }

      .cls-1, .cls-2 {
        stroke-width: 0px;
      }

      .cls-2 {
        fill: #ffd9fd;
      }
    </style>
  </defs>
  <g id="Layer_1-2" data-name="Layer 1">
    <g>
      <g>
        <path class="cls-1" d="M83.65,96.84C51.39,89.15,0,79.17,0,79.17l.07,190.33s32.71,22.3,60.23,26.54c32.44,5,50.87-1.32,83.64-11.1,32.07-8.83,48.59-20.72,80.29-15.52,30.07,4.93,30.31,23.17,58.56,35.39,33.53,12.49,49.97,8.52,78.89,2.73,12.78-3.05,28.31-6.1,28-12.2,0-23.19,0-21.36,0-21.36l.3-63.46s0,3.66-.3-11.29c-33.48-8.85-49.92,21.36-86.86-6.19-17.55-15.77-20.8-27.44-40.17-42.04-50.72-38.21-106.7-36.91-179.02-54.16Z"/>
        <path class="cls-1" d="M83.65,17.67C51.39,9.98,0,0,0,0l.07,190.33s32.71,22.3,60.23,26.54c32.44,5,50.87-1.32,83.64-11.1,32.07-8.83,48.59-20.72,80.29-15.52,30.07,4.93,30.31,23.17,58.56,35.39,33.53,12.49,49.97,8.52,78.89,2.73,12.78-3.05,28.31-6.1,28-12.2,0-23.19,0-21.36,0-21.36l.3-63.46s0,3.66-.3-11.29c-33.48-8.85-49.92,21.36-86.86-6.19-17.55-15.77-20.8-27.44-40.17-42.04-50.72-38.21-106.7-36.91-179.02-54.16Z"/>
        <rect class="cls-1" y="127" width="390" height="99.88"/>
      </g>
      <g>
        <path class="cls-2" d="M388.17,287.47c.91-.47,1.83-2.11,1.83-1.88l-.3,127.94c0,11.27-14.75,11.9-36.53,10.33-24.86-1.79-34.3-8.69-58.81-4.97-19.9,3.02-50.06,15.86-69.53,20.27-37.4,8.47-70.9,8.65-76.83,9.38-5.93.72-39.77-1.68-63.37,3.84-24.58,5.74-39.12,20.28-64.27,16.34-15.98-2.5-20.36-10.12-20.36-10.12v-192.26l47.49,16.67c6.11,2.35,17.94,3.41,24.96,3.99l22.53-.7c15.23-.99,60.22-12,75.5-15.96l17.05-4.23c6.67-1.2,19.94-2.11,26.79-2.11l15.53,1.64c9.98,2.23,12.81,3.63,19.38,7.1,2.32,1.23,4.58,2.54,6.74,3.92l14.67,9.4c24.96,13.15,41.1,13.62,67.59,11.5,16.6-1.32,25.57-3.29,40.8-6.57,2.89-.62,4.57-1.41,7.61-2.58"/>
        <path class="cls-2" d="M388.17,829.09c.91-.47,1.83-2.11,1.83-1.88l-.3,127.94c0,11.27-14.75,11.9-36.53,10.33-24.86-1.79-34.3-8.69-58.81-4.97-19.9,3.02-50.06,15.86-69.53,20.27-37.4,8.47-70.9,8.65-76.83,9.38-5.93.72-39.77-1.68-63.37,3.84-24.58,5.74-39.12,20.28-64.27,16.34-15.98-2.5-20.36-10.12-20.36-10.12v-192.26l47.49,16.67c6.11,2.35,17.94,3.41,24.96,3.99l22.53-.7c15.23-.99,60.22-12,75.5-15.96l17.05-4.23c6.67-1.2,19.94-2.11,26.79-2.11l15.53,1.64c9.98,2.23,12.81,3.63,19.38,7.1,2.32,1.23,4.58,2.54,6.74,3.92l14.67,9.4c24.96,13.15,41.1,13.62,67.59,11.5,16.6-1.32,25.57-3.29,40.8-6.57,2.89-.62,4.57-1.41,7.61-2.58"/>
        <rect class="cls-2" y="404.08" width="390" height="491.92"/>
      </g>
    </g>
  </g>
</svg>